<svg xmlns="http://www.w3.org/2000/svg" xmlns:xlink="http://www.w3.org/1999/xlink" id="body_1" preserveAspectRatio="xMinYMin meet" viewBox="0 0 793 1123"><defs><clipPath id="1"><path d="M0 842L0 -0.03997803L0 -0.03997803L595.56 -0.03997803L595.56 -0.03997803L595.56 842L595.56 842L0 842z" /></clipPath><clipPath id="2"><path d="M-4.9086E-05 841.9997L595.5599 841.9997L595.5599 841.9997L595.5599 -0.0402832L595.5599 -0.0402832L-4.9086E-05 -0.0402832z" /></clipPath><clipPath id="3"><path d="M8.875E-06 842L595.56 842L595.56 842L595.56 -0.03997803L595.56 -0.03997803L8.875E-06 -0.03997803z" /></clipPath><clipPath id="4"><path d="M8.875E-06 842L595.56 842L595.56 842L595.56 -0.03997803L595.56 -0.03997803L8.875E-06 -0.03997803z" /></clipPath><clipPath id="5"><path d="M31.8 170.86L43.08 170.86L43.08 170.86L43.08 151.54L43.08 151.54L31.8 151.54z" /></clipPath><clipPath id="6"><path d="M31.8 170.86L43.08 170.86L43.08 170.86L43.08 151.54L43.08 151.54L31.8 151.54z" /></clipPath><clipPath id="7"><path d="M43.08 170.86L127.104 170.86L127.104 170.86L127.104 151.54L127.104 151.54L43.08 151.54z" /></clipPath><clipPath id="8"><path d="M43.08 170.86L127.104 170.86L127.104 170.86L127.104 151.54L127.104 151.54L43.08 151.54z" /></clipPath><clipPath id="9"><path d="M43.08 170.86L127.104 170.86L127.104 170.86L127.104 151.54L127.104 151.54L43.08 151.54z" /></clipPath><clipPath id="10"><path d="M127.1 170.86L559.65 170.86L559.65 170.86L559.65 151.54L559.65 151.54L127.1 151.54z" /></clipPath><clipPath id="11"><path d="M127.1 170.86L559.65 170.86L559.65 170.86L559.65 151.54L559.65 151.54L127.1 151.54z" /></clipPath><clipPath id="12"><path d="M31.8 254.41L42.36 254.41L42.36 254.41L42.36 171.586L42.36 171.586L31.8 171.586z" /></clipPath><clipPath id="13"><path d="M31.8 254.41L42.36 254.41L42.36 254.41L42.36 171.586L42.36 171.586L31.8 171.586z" /></clipPath><clipPath id="14"><path d="M43.8 254.41L559.66 254.41L559.66 254.41L559.66 171.586L559.66 171.586L43.8 171.586z" /></clipPath><clipPath id="15"><path d="M43.8 254.41L559.66 254.41L559.66 254.41L559.66 171.586L559.66 171.586L43.8 171.586z" /></clipPath><clipPath id="16"><path d="M43.8 254.41L559.66 254.41L559.66 254.41L559.66 171.586L559.66 171.586L43.8 171.586z" /></clipPath><clipPath id="17"><path d="M43.8 254.41L559.66 254.41L559.66 254.41L559.66 171.586L559.66 171.586L43.8 171.586z" /></clipPath><clipPath id="18"><path d="M43.8 254.41L559.66 254.41L559.66 254.41L559.66 171.586L559.66 171.586L43.8 171.586z" /></clipPath><clipPath id="19"><path d="M43.8 254.41L559.66 254.41L559.66 254.41L559.66 171.586L559.66 171.586L43.8 171.586z" /></clipPath><clipPath id="20"><path d="M43.8 254.41L559.66 254.41L559.66 254.41L559.66 171.586L559.66 171.586L43.8 171.586z" /></clipPath><clipPath id="21"><path d="M43.8 254.41L559.66 254.41L559.66 254.41L559.66 171.586L559.66 171.586L43.8 171.586z" /></clipPath><clipPath id="22"><path d="M43.8 254.41L559.66 254.41L559.66 254.41L559.66 171.586L559.66 171.586L43.8 171.586z" /></clipPath><clipPath id="23"><path d="M43.8 254.41L559.66 254.41L559.66 254.41L559.66 171.586L559.66 171.586L43.8 171.586z" /></clipPath><clipPath id="24"><path d="M43.8 254.41L559.66 254.41L559.66 254.41L559.66 171.586L559.66 171.586L43.8 171.586z" /></clipPath><clipPath id="25"><path d="M43.8 254.41L559.66 254.41L559.66 254.41L559.66 171.586L559.66 171.586L43.8 171.586z" /></clipPath><clipPath id="26"><path d="M43.8 254.41L559.66 254.41L559.66 254.41L559.66 171.586L559.66 171.586L43.8 171.586z" /></clipPath><clipPath id="27"><path d="M43.8 254.41L559.66 254.41L559.66 254.41L559.66 171.586L559.66 171.586L43.8 171.586z" /></clipPath><clipPath id="28"><path d="M43.8 254.41L559.66 254.41L559.66 254.41L559.66 171.586L559.66 171.586L43.8 171.586z" /></clipPath><clipPath id="29"><path d="M43.8 254.41L559.66 254.41L559.66 254.41L559.66 171.586L559.66 171.586L43.8 171.586z" /></clipPath><clipPath id="30"><path d="M43.8 254.41L559.66 254.41L559.66 254.41L559.66 171.586L559.66 171.586L43.8 171.586z" /></clipPath><clipPath id="31"><path d="M43.8 254.41L559.66 254.41L559.66 254.41L559.66 171.586L559.66 171.586L43.8 171.586z" /></clipPath><clipPath id="32"><path d="M43.8 254.41L559.66 254.41L559.66 254.41L559.66 171.586L559.66 171.586L43.8 171.586z" /></clipPath><clipPath id="33"><path d="M43.8 254.41L559.66 254.41L559.66 254.41L559.66 171.586L559.66 171.586L43.8 171.586z" /></clipPath><clipPath id="34"><path d="M43.8 254.41L559.66 254.41L559.66 254.41L559.66 171.586L559.66 171.586L43.8 171.586z" /></clipPath><clipPath id="35"><path d="M43.8 254.41L559.66 254.41L559.66 254.41L559.66 171.586L559.66 171.586L43.8 171.586z" /></clipPath><clipPath id="36"><path d="M43.8 254.41L559.66 254.41L559.66 254.41L559.66 171.586L559.66 171.586L43.8 171.586z" /></clipPath><clipPath id="37"><path d="M43.8 254.41L559.66 254.41L559.66 254.41L559.66 171.586L559.66 171.586L43.8 171.586z" /></clipPath><clipPath id="38"><path d="M43.8 254.41L559.66 254.41L559.66 254.41L559.66 171.586L559.66 171.586L43.8 171.586z" /></clipPath><clipPath id="39"><path d="M43.8 254.41L559.66 254.41L559.66 254.41L559.66 171.586L559.66 171.586L43.8 171.586z" /></clipPath><clipPath id="40"><path d="M43.8 254.41L559.66 254.41L559.66 254.41L559.66 171.586L559.66 171.586L43.8 171.586z" /></clipPath><clipPath id="41"><path d="M31.8 273.61L43.08 273.61L43.08 273.61L43.08 254.41L43.08 254.41L31.8 254.41z" /></clipPath><clipPath id="42"><path d="M31.8 273.61L43.08 273.61L43.08 273.61L43.08 254.41L43.08 254.41L31.8 254.41z" /></clipPath><clipPath id="43"><path d="M43.08 273.61L127.104 273.61L127.104 273.61L127.104 254.41L127.104 254.41L43.08 254.41z" /></clipPath><clipPath id="44"><path d="M43.08 273.61L127.104 273.61L127.104 273.61L127.104 254.41L127.104 254.41L43.08 254.41z" /></clipPath><clipPath id="45"><path d="M43.08 273.61L127.104 273.61L127.104 273.61L127.104 254.41L127.104 254.41L43.08 254.41z" /></clipPath><clipPath id="46"><path d="M127.1 273.61L559.65 273.61L559.65 273.61L559.65 254.41L559.65 254.41L127.1 254.41z" /></clipPath><clipPath id="47"><path d="M127.1 273.61L559.65 273.61L559.65 273.61L559.65 254.41L559.65 254.41L127.1 254.41z" /></clipPath><clipPath id="48"><path d="M31.8 401.89L42.36 401.89L42.36 401.89L42.36 274.45L42.36 274.45L31.8 274.45z" /></clipPath><clipPath id="49"><path d="M31.8 401.89L42.36 401.89L42.36 401.89L42.36 274.45L42.36 274.45L31.8 274.45z" /></clipPath><clipPath id="50"><path d="M43.8 401.89L559.66 401.89L559.66 401.89L559.66 274.45L559.66 274.45L43.8 274.45z" /></clipPath><clipPath id="51"><path d="M43.8 401.89L559.66 401.89L559.66 401.89L559.66 274.45L559.66 274.45L43.8 274.45z" /></clipPath><clipPath id="52"><path d="M43.8 401.89L559.66 401.89L559.66 401.89L559.66 274.45L559.66 274.45L43.8 274.45z" /></clipPath><clipPath id="53"><path d="M43.8 401.89L559.66 401.89L559.66 401.89L559.66 274.45L559.66 274.45L43.8 274.45z" /></clipPath><clipPath id="54"><path d="M43.8 401.89L559.66 401.89L559.66 401.89L559.66 274.45L559.66 274.45L43.8 274.45z" /></clipPath><clipPath id="55"><path d="M43.8 401.89L559.66 401.89L559.66 401.89L559.66 274.45L559.66 274.45L43.8 274.45z" /></clipPath><clipPath id="56"><path d="M43.8 401.89L559.66 401.89L559.66 401.89L559.66 274.45L559.66 274.45L43.8 274.45z" /></clipPath><clipPath id="57"><path d="M43.8 401.89L559.66 401.89L559.66 401.89L559.66 274.45L559.66 274.45L43.8 274.45z" /></clipPath><clipPath id="58"><path d="M43.8 401.89L559.66 401.89L559.66 401.89L559.66 274.45L559.66 274.45L43.8 274.45z" /></clipPath><clipPath id="59"><path d="M43.8 401.89L559.66 401.89L559.66 401.89L559.66 274.45L559.66 274.45L43.8 274.45z" /></clipPath><clipPath id="60"><path d="M43.8 401.89L559.66 401.89L559.66 401.89L559.66 274.45L559.66 274.45L43.8 274.45z" /></clipPath><clipPath id="61"><path d="M43.8 401.89L559.66 401.89L559.66 401.89L559.66 274.45L559.66 274.45L43.8 274.45z" /></clipPath><clipPath id="62"><path d="M43.8 401.89L559.66 401.89L559.66 401.89L559.66 274.45L559.66 274.45L43.8 274.45z" /></clipPath><clipPath id="63"><path d="M43.8 401.89L559.66 401.89L559.66 401.89L559.66 274.45L559.66 274.45L43.8 274.45z" /></clipPath><clipPath id="64"><path d="M43.8 401.89L559.66 401.89L559.66 401.89L559.66 274.45L559.66 274.45L43.8 274.45z" /></clipPath><clipPath id="65"><path d="M43.8 401.89L559.66 401.89L559.66 401.89L559.66 274.45L559.66 274.45L43.8 274.45z" /></clipPath><clipPath id="66"><path d="M43.8 401.89L559.66 401.89L559.66 401.89L559.66 274.45L559.66 274.45L43.8 274.45z" /></clipPath><clipPath id="67"><path d="M43.8 401.89L559.66 401.89L559.66 401.89L559.66 274.45L559.66 274.45L43.8 274.45z" /></clipPath><clipPath id="68"><path d="M43.8 401.89L559.66 401.89L559.66 401.89L559.66 274.45L559.66 274.45L43.8 274.45z" /></clipPath><clipPath id="69"><path d="M43.8 401.89L559.66 401.89L559.66 401.89L559.66 274.45L559.66 274.45L43.8 274.45z" /></clipPath><clipPath id="70"><path d="M43.8 401.89L559.66 401.89L559.66 401.89L559.66 274.45L559.66 274.45L43.8 274.45z" /></clipPath><clipPath id="71"><path d="M43.8 401.89L559.66 401.89L559.66 401.89L559.66 274.45L559.66 274.45L43.8 274.45z" /></clipPath><clipPath id="72"><path d="M43.8 401.89L559.66 401.89L559.66 401.89L559.66 274.45L559.66 274.45L43.8 274.45z" /></clipPath><clipPath id="73"><path d="M43.8 401.89L559.66 401.89L559.66 401.89L559.66 274.45L559.66 274.45L43.8 274.45z" /></clipPath><clipPath id="74"><path d="M43.8 401.89L559.66 401.89L559.66 401.89L559.66 274.45L559.66 274.45L43.8 274.45z" /></clipPath><clipPath id="75"><path d="M43.8 401.89L559.66 401.89L559.66 401.89L559.66 274.45L559.66 274.45L43.8 274.45z" /></clipPath><clipPath id="76"><path d="M43.8 401.89L559.66 401.89L559.66 401.89L559.66 274.45L559.66 274.45L43.8 274.45z" /></clipPath><clipPath id="77"><path d="M43.8 401.89L559.66 401.89L559.66 401.89L559.66 274.45L559.66 274.45L43.8 274.45z" /></clipPath><clipPath id="78"><path d="M8.875E-06 842L595.56 842L595.56 842L595.56 -0.03997803L595.56 -0.03997803L8.875E-06 -0.03997803z" /></clipPath><clipPath id="79"><path d="M17.04 143.5L432.91 143.5L432.91 143.5L432.91 -0.03997803L432.91 -0.03997803L17.04 -0.03997803z" /></clipPath><clipPath id="80"><path d="M26.04 121.78L183.02 121.78L183.02 121.78L183.02 -0.03997803L183.02 -0.03997803L26.04 -0.03997803z" /></clipPath><clipPath id="81"><path d="M26.04 121.78L183.02 121.78L183.02 121.78L183.02 -0.03997803L183.02 -0.03997803L26.04 -0.03997803z" /></clipPath><clipPath id="82"><path d="M26.04 121.78L183.02 121.78L183.02 121.78L183.02 -0.03997803L183.02 -0.03997803L26.04 -0.03997803z" /></clipPath><clipPath id="83"><path d="M26.04 121.78L183.02 121.78L183.02 121.78L183.02 -0.03997803L183.02 -0.03997803L26.04 -0.03997803z" /></clipPath><clipPath id="84"><path d="M26.04 121.78L183.02 121.78L183.02 121.78L183.02 -0.03997803L183.02 -0.03997803L26.04 -0.03997803z" /></clipPath><clipPath id="85"><path d="M26.04 121.78L183.02 121.78L183.02 121.78L183.02 -0.03997803L183.02 -0.03997803L26.04 -0.03997803z" /></clipPath><clipPath id="86"><path d="M183.02 121.78L423.07 121.78L423.07 121.78L423.07 -0.03997803L423.07 -0.03997803L183.02 -0.03997803z" /></clipPath><clipPath id="87"><path d="M183.02 121.78L423.07 121.78L423.07 121.78L423.07 -0.03997803L423.07 -0.03997803L183.02 -0.03997803z" /></clipPath><clipPath id="88"><path d="M26.04 142.78L183.02 142.78L183.02 142.78L183.02 122.6201L183.02 122.6201L26.04 122.6201z" /></clipPath><clipPath id="89"><path d="M26.04 142.78L183.02 142.78L183.02 142.78L183.02 122.6201L183.02 122.6201L26.04 122.6201z" /></clipPath><clipPath id="90"><path d="M26.04 142.78L183.02 142.78L183.02 142.78L183.02 122.6201L183.02 122.6201L26.04 122.6201z" /></clipPath><clipPath id="91"><path d="M26.04 142.78L183.02 142.78L183.02 142.78L183.02 122.6201L183.02 122.6201L26.04 122.6201z" /></clipPath><clipPath id="92"><path d="M183.02 142.78L231.164 142.78L231.164 142.78L231.164 122.6201L231.164 122.6201L183.02 122.6201z" /></clipPath><clipPath id="93"><path d="M183.02 142.78L231.164 142.78L231.164 142.78L231.164 122.6201L231.164 122.6201L183.02 122.6201z" /></clipPath><clipPath id="94"><path d="M231.17 142.78L423.07 142.78L423.07 142.78L423.07 122.6201L423.07 122.6201L231.17 122.6201z" /></clipPath><clipPath id="95"><path d="M231.17 142.78L423.07 142.78L423.07 142.78L423.07 122.6201L423.07 122.6201L231.17 122.6201z" /></clipPath><clipPath id="96"><path d="M231.17 142.78L423.07 142.78L423.07 142.78L423.07 122.6201L423.07 122.6201L231.17 122.6201z" /></clipPath><clipPath id="97"><path d="M231.17 142.78L423.07 142.78L423.07 142.78L423.07 122.6201L423.07 122.6201L231.17 122.6201z" /></clipPath><clipPath id="98"><path d="M31.8 254.36L42.36 254.36L42.36 254.36L42.36 171.56L42.36 171.56L31.8 171.56z" /></clipPath><clipPath id="99"><path d="M31.8 401.84L42.36 401.84L42.36 401.84L42.36 274.4L42.36 274.4L31.8 274.4z" /></clipPath></defs><g transform="matrix(1.333333 0 0 1.333333 0 0)"><g><g clip-path="url(#1)"><path transform="matrix(1 0 0 -1 0 842)" d="M83.05 787.94L27.7 818.04L27.7 818.04L27.7 842.04L27.7 842.04L138.35 842.04L138.35 842.04L138.35 818.04L138.35 818.04L83.05 787.94z" stroke="none" fill="#5568AF" fill-rule="evenodd" /><g clip-path="url(#2)"><g transform="matrix(0.3272901 0 0 0.3273028 445.3 34.34998)"><g transform="matrix(1 0 0 1 0 0)"><image x="0" y="0" xlink:href="img_01.png" width="262" height="393" /></g></g></g><g clip-path="url(#3)"></g><g clip-path="url(#4)"></g><path transform="matrix(1 0 0 -1 0 842)" d="M31.8 671.14L43.08 671.14L43.08 671.14L43.08 690.46L43.08 690.46L31.8 690.46z" stroke="none" fill="#5568AF" fill-rule="evenodd" /><g clip-path="url(#5)"><path transform="matrix(1 0 0 -1 0 842)" d="M31.8 676.66L43.08 676.66L43.08 676.66L43.08 690.46L43.08 690.46L31.8 690.46z" stroke="none" fill="#5568AF" fill-rule="evenodd" /><g clip-path="url(#6)"></g></g><path transform="matrix(1 0 0 -1 0 842)" d="M43.08 671.14L127.104 671.14L127.104 671.14L127.104 690.46L127.104 690.46L43.08 690.46z" stroke="none" fill="#5568AF" fill-rule="evenodd" /><g clip-path="url(#7)"><path transform="matrix(1 0 0 -1 0 842)" d="M43.08 672.1L127.104 672.1L127.104 672.1L127.104 690.46L127.104 690.46L43.08 690.46z" stroke="none" fill="#5568AF" fill-rule="evenodd" /><g clip-path="url(#8)"></g><g clip-path="url(#9)"></g></g><g clip-path="url(#10)"><g clip-path="url(#11)"></g></g><g clip-path="url(#12)"><g clip-path="url(#13)"></g></g><g clip-path="url(#14)"><g clip-path="url(#15)"></g><g clip-path="url(#16)"></g><g clip-path="url(#17)"></g><g clip-path="url(#18)"></g><g clip-path="url(#19)"></g><g clip-path="url(#20)"></g><g clip-path="url(#21)"></g><g clip-path="url(#22)"></g><g clip-path="url(#23)"></g><g clip-path="url(#24)"></g><g clip-path="url(#25)"></g><g clip-path="url(#26)"></g><g clip-path="url(#27)"></g><g clip-path="url(#28)"></g><g clip-path="url(#29)"></g><g clip-path="url(#30)"></g><g clip-path="url(#31)"></g><g clip-path="url(#32)"></g><g clip-path="url(#33)"></g><g clip-path="url(#34)"></g><g clip-path="url(#35)"></g><g clip-path="url(#36)"></g><g clip-path="url(#37)"></g><g clip-path="url(#38)"></g><g clip-path="url(#39)"></g><g clip-path="url(#40)"></g></g><path transform="matrix(1 0 0 -1 0 842)" d="M31.8 670.42L42.48 670.42L42.48 670.42L42.48 671.14L42.48 671.14L31.8 671.14z" stroke="none" fill="#5568AF" fill-rule="evenodd" /><path transform="matrix(1 0 0 -1 0 842)" d="M42.48 670.42L43.2 670.42L43.2 670.42L43.2 671.14L43.2 671.14L42.48 671.14z" stroke="none" fill="#5568AF" fill-rule="evenodd" /><path transform="matrix(1 0 0 -1 0 842)" d="M43.2 670.42L43.92 670.42L43.92 670.42L43.92 671.14L43.92 671.14L43.2 671.14z" stroke="none" fill="#5568AF" fill-rule="evenodd" /><path transform="matrix(1 0 0 -1 0 842)" d="M43.92 670.42L44.64 670.42L44.64 670.42L44.64 671.14L44.64 671.14L43.92 671.14z" stroke="none" fill="#5568AF" fill-rule="evenodd" /><path transform="matrix(1 0 0 -1 0 842)" d="M44.64 670.42L127.104 670.42L127.104 670.42L127.104 671.14L127.104 671.14L44.64 671.14z" stroke="none" fill="#5568AF" fill-rule="evenodd" /><path transform="matrix(1 0 0 -1 0 842)" d="M127.1 670.42L127.82 670.42L127.82 670.42L127.82 671.14L127.82 671.14L127.1 671.14z" stroke="none" fill="#5568AF" fill-rule="evenodd" /><path transform="matrix(1 0 0 -1 0 842)" d="M127.82 670.42L559.65 670.42L559.65 670.42L559.65 671.14L559.65 671.14L127.82 671.14z" stroke="none" fill="#5568AF" fill-rule="evenodd" /><path transform="matrix(1 0 0 -1 0 842)" d="M42.48 587.59L43.92 587.59L43.92 587.59L43.92 670.414L43.92 670.414L42.48 670.414z" stroke="none" fill="#5568AF" fill-rule="evenodd" /><path transform="matrix(1 0 0 -1 0 842)" d="M31.8 568.39L43.08 568.39L43.08 568.39L43.08 587.59L43.08 587.59L31.8 587.59z" stroke="none" fill="#5568AF" fill-rule="evenodd" /><g clip-path="url(#41)"><path transform="matrix(1 0 0 -1 0 842)" d="M31.8 573.79L43.08 573.79L43.08 573.79L43.08 587.59L43.08 587.59L31.8 587.59z" stroke="none" fill="#5568AF" fill-rule="evenodd" /><g clip-path="url(#42)"></g></g><path transform="matrix(1 0 0 -1 0 842)" d="M43.08 568.39L127.104 568.39L127.104 568.39L127.104 587.59L127.104 587.59L43.08 587.59z" stroke="none" fill="#5568AF" fill-rule="evenodd" /><g clip-path="url(#43)"><path transform="matrix(1 0 0 -1 0 842)" d="M43.08 569.35L127.104 569.35L127.104 569.35L127.104 587.59L127.104 587.59L43.08 587.59z" stroke="none" fill="#5568AF" fill-rule="evenodd" /><g clip-path="url(#44)"></g><g clip-path="url(#45)"></g></g><g clip-path="url(#46)"><g clip-path="url(#47)"></g></g><g clip-path="url(#48)"><g clip-path="url(#49)"></g></g><g clip-path="url(#50)"><g clip-path="url(#51)"></g><g clip-path="url(#52)"></g><g clip-path="url(#53)"></g><g clip-path="url(#54)"></g><g clip-path="url(#55)"></g><g clip-path="url(#56)"></g><g clip-path="url(#57)"></g><g clip-path="url(#58)"></g><g clip-path="url(#59)"></g><g clip-path="url(#60)"></g><g clip-path="url(#61)"></g><g clip-path="url(#62)"></g><g clip-path="url(#63)"></g><g clip-path="url(#64)"></g><g clip-path="url(#65)"></g><g clip-path="url(#66)"></g><g clip-path="url(#67)"></g><g clip-path="url(#68)"></g><g clip-path="url(#69)"></g><g clip-path="url(#70)"></g><g clip-path="url(#71)"></g><g clip-path="url(#72)"></g><g clip-path="url(#73)"></g><g clip-path="url(#74)"></g><g clip-path="url(#75)"></g><g clip-path="url(#76)"></g><g clip-path="url(#77)"></g></g><path transform="matrix(1 0 0 -1 0 842)" d="M31.8 567.67L42.48 567.67L42.48 567.67L42.48 568.39L42.48 568.39L31.8 568.39z" stroke="none" fill="#5568AF" fill-rule="evenodd" /><path transform="matrix(1 0 0 -1 0 842)" d="M42.48 567.67L43.2 567.67L43.2 567.67L43.2 568.39L43.2 568.39L42.48 568.39z" stroke="none" fill="#5568AF" fill-rule="evenodd" /><path transform="matrix(1 0 0 -1 0 842)" d="M43.2 567.67L43.92 567.67L43.92 567.67L43.92 568.39L43.92 568.39L43.2 568.39z" stroke="none" fill="#5568AF" fill-rule="evenodd" /><path transform="matrix(1 0 0 -1 0 842)" d="M127.1 567.67L559.65 567.67L559.65 567.67L559.65 568.39L559.65 568.39L127.1 568.39z" stroke="none" fill="#5568AF" fill-rule="evenodd" /><path transform="matrix(1 0 0 -1 0 842)" d="M42.48 440.11L43.92 440.11L43.92 440.11L43.92 567.67L43.92 567.67L42.48 567.67z" stroke="none" fill="#5568AF" fill-rule="evenodd" /><g clip-path="url(#78)"></g><g clip-path="url(#79)"><g clip-path="url(#80)"><g clip-path="url(#81)"></g><g clip-path="url(#82)"></g><g clip-path="url(#83)"></g><g clip-path="url(#84)"></g><g clip-path="url(#85)"></g></g><g clip-path="url(#86)"><g clip-path="url(#87)"></g></g><g clip-path="url(#88)"><g clip-path="url(#89)"></g><g clip-path="url(#90)"></g><g clip-path="url(#91)"></g></g><g clip-path="url(#92)"><g clip-path="url(#93)"></g></g><g clip-path="url(#94)"><g clip-path="url(#95)"></g><g clip-path="url(#96)"></g><g clip-path="url(#97)"></g></g><path transform="matrix(1 0 0 -1 0 842)" d="M26.04 719.5L183.14 719.5L183.14 719.5L183.14 720.22L183.14 720.22L26.04 720.22z" stroke="none" fill="#5568AF" fill-rule="evenodd" /><path transform="matrix(1 0 0 -1 0 842)" d="M183.14 719.5L183.86 719.5L183.86 719.5L183.86 720.22L183.86 720.22L183.14 720.22z" stroke="none" fill="#5568AF" fill-rule="evenodd" /><path transform="matrix(1 0 0 -1 0 842)" d="M183.86 719.5L231.164 719.5L231.164 719.5L231.164 720.22L231.164 720.22L183.86 720.22z" stroke="none" fill="#5568AF" fill-rule="evenodd" /><path transform="matrix(1 0 0 -1 0 842)" d="M231.17 719.5L231.89 719.5L231.89 719.5L231.89 720.22L231.89 720.22L231.17 720.22z" stroke="none" fill="#5568AF" fill-rule="evenodd" /><path transform="matrix(1 0 0 -1 0 842)" d="M231.89 719.5L423.19 719.5L423.19 719.5L423.19 720.22L423.19 720.22L231.89 720.22z" stroke="none" fill="#5568AF" fill-rule="evenodd" /><path transform="matrix(1 0 0 -1 0 842)" d="M25.32 698.5L183.14 698.5L183.14 698.5L183.14 699.22L183.14 699.22L25.32 699.22z" stroke="none" fill="#5568AF" fill-rule="evenodd" /><path transform="matrix(1 0 0 -1 0 842)" d="M182.42 698.5L183.14 698.5L183.14 698.5L183.14 699.22L183.14 699.22L182.42 699.22z" stroke="none" fill="#5568AF" fill-rule="evenodd" /><path transform="matrix(1 0 0 -1 0 842)" d="M183.14 698.5L231.164 698.5L231.164 698.5L231.164 699.22L231.164 699.22L183.14 699.22z" stroke="none" fill="#5568AF" fill-rule="evenodd" /><path transform="matrix(1 0 0 -1 0 842)" d="M230.45 698.5L231.17 698.5L231.17 698.5L231.17 699.22L231.17 699.22L230.45 699.22z" stroke="none" fill="#5568AF" fill-rule="evenodd" /><path transform="matrix(1 0 0 -1 0 842)" d="M231.17 698.5L423.19 698.5L423.19 698.5L423.19 699.22L423.19 699.22L231.17 699.22z" stroke="none" fill="#5568AF" fill-rule="evenodd" /></g><g clip-path="url(#98)"><path transform="matrix(1 0 0 -1 0 842)" d="M43.45 665.19L32.15 671.19L32.15 671.19L43.45 671.19L43.45 671.19L43.45 665.19z" stroke="none" fill="#133E6A" fill-rule="evenodd" /></g><g clip-path="url(#99)"><path transform="matrix(1 0 0 -1 0 842)" d="M43.45 562.44L32.05 568.44L32.05 568.44L43.45 568.44L43.45 568.44L43.45 562.44z" stroke="none" fill="#133E6A" fill-rule="evenodd" /></g></g></g></g></svg>